<?xml version="1.0" encoding="UTF-8" standalone="no"?>
<!DOCTYPE svg PUBLIC "-//W3C//DTD SVG 1.1//EN" "http://www.w3.org/Graphics/SVG/1.1/DTD/svg11.dtd">
<svg width="100%" height="100%" viewBox="0 0 3000 700" version="1.1" xmlns="http://www.w3.org/2000/svg" xmlns:xlink="http://www.w3.org/1999/xlink" xml:space="preserve" xmlns:serif="http://www.serif.com/" style="fill-rule:evenodd;clip-rule:evenodd;stroke-linejoin:round;stroke-miterlimit:2;">
    <g transform="matrix(1,0,0,1,39.2349,-15.7696)">
        <g transform="matrix(1.60056,0,0,1.60056,-139.795,-4677.14)">
            <path d="M208.226,3302.96C237.301,3302.96 263.194,3296.38 285.908,3283.2C308.623,3270.03 326.41,3251.79 339.287,3228.46C352.155,3205.14 358.594,3178.94 358.594,3149.87C358.594,3120.8 352.155,3094.68 339.287,3071.51C326.41,3048.34 308.623,3030.17 285.908,3016.99C263.194,3003.82 237.301,2997.23 208.226,2997.23L140.085,2997.23L140.085,3302.96L208.226,3302.96ZM116.689,3323.63C114.112,3321.06 112.828,3317.81 112.828,3313.87L112.828,2986.33C112.828,2982.09 114.112,2978.76 116.689,2976.34C119.258,2973.92 122.517,2972.7 126.456,2972.7L208.226,2972.7C242.446,2972.7 273.032,2980.28 299.992,2995.42C326.943,3010.56 347.989,3031.53 363.137,3058.33C378.276,3085.14 385.851,3115.65 385.851,3149.87C385.851,3184.1 378.276,3214.68 363.137,3241.63C347.989,3268.59 326.943,3289.64 299.992,3304.78C273.032,3319.93 242.446,3327.5 208.226,3327.5L126.456,3327.5C122.517,3327.5 119.258,3326.21 116.689,3323.63Z" style="fill:rgb(139,106,162);fill-rule:nonzero;"/>
        </g>
        <g transform="matrix(1.60056,0,0,1.60056,-139.795,-4677.14)">
            <path d="M415.826,3054.72C411.887,3050.63 409.921,3045.56 409.921,3039.5C409.921,3032.84 412.036,3027.69 416.281,3024.06C420.519,3020.42 425.515,3018.6 431.272,3018.6C437.021,3018.6 441.948,3020.42 446.036,3024.06C450.124,3027.69 452.169,3032.84 452.169,3039.5C452.169,3045.56 450.124,3050.63 446.036,3054.72C441.948,3058.81 436.873,3060.85 430.817,3060.85C424.756,3060.85 419.759,3058.81 415.826,3054.72Z" style="fill:rgb(253,186,60);fill-rule:nonzero;"/>
        </g>
        <g transform="matrix(1.60056,0,0,1.60056,-139.795,-4677.14)">
            <path d="M421.505,3323.63C418.928,3321.06 417.644,3317.81 417.644,3313.87L417.644,3092.63C417.644,3088.39 418.928,3085.07 421.505,3082.64C424.074,3080.22 427.332,3079 431.272,3079C435.51,3079 438.839,3080.22 441.266,3082.64C443.687,3085.07 444.901,3088.39 444.901,3092.63L444.901,3313.87C444.901,3317.81 443.687,3321.06 441.266,3323.63C438.839,3326.21 435.51,3327.5 431.272,3327.5C427.332,3327.5 424.074,3326.21 421.505,3323.63Z" style="fill:rgb(139,106,162);fill-rule:nonzero;"/>
        </g>
        <g transform="matrix(1.60056,0,0,1.60056,-139.795,-4677.14)">
            <path d="M693.391,3091.27C693.391,3093.39 693.086,3095.06 692.483,3096.27L590.269,3318.41C587.239,3324.77 582.391,3327.95 575.732,3327.95C573.007,3327.95 570.509,3327.12 568.237,3325.45C565.966,3323.79 564.219,3321.44 563.012,3318.41L459.437,3096.72C458.827,3095.51 458.528,3093.84 458.528,3091.72C458.528,3086.27 461.098,3082.34 466.251,3079.91C468.068,3079 469.885,3078.55 471.702,3078.55C476.848,3078.55 480.632,3081.13 483.059,3086.27L576.187,3287.97L667.952,3085.82C670.373,3080.67 674.312,3078.09 679.764,3078.09C681.878,3078.09 683.851,3078.55 685.669,3079.46C690.814,3081.89 693.391,3085.82 693.391,3091.27Z" style="fill:rgb(139,106,162);fill-rule:nonzero;"/>
        </g>
        <g transform="matrix(1.60056,0,0,1.60056,-139.795,-4677.14)">
            <path d="M727.687,3125.79C711.482,3141.54 701.864,3162.29 698.839,3188.03L875.555,3188.03C873.433,3162.29 864.348,3141.54 848.298,3125.79C832.243,3110.05 811.955,3102.17 787.424,3102.17C763.802,3102.17 743.884,3110.05 727.687,3125.79ZM846.708,3092.41C864.12,3102.85 877.671,3117.32 887.366,3135.79C897.055,3154.27 901.903,3175.31 901.903,3198.93C901.903,3202.87 900.689,3205.97 898.269,3208.25C895.841,3210.52 892.662,3211.65 888.73,3211.65L698.385,3211.65C699.294,3229.53 703.986,3245.5 712.468,3259.58C720.943,3273.66 732.3,3284.64 746.539,3292.52C760.771,3300.39 776.671,3304.33 794.239,3304.33C806.05,3304.33 817.932,3302.28 829.9,3298.19C841.86,3294.11 851.321,3288.73 858.292,3282.07C861.316,3279.65 864.496,3278.43 867.832,3278.43C871.162,3278.43 873.887,3279.34 876.01,3281.16C879.339,3283.88 881.006,3287.06 881.006,3290.7C881.006,3293.73 879.644,3296.6 876.918,3299.33C867.221,3308.12 854.58,3315.38 838.985,3321.13C823.384,3326.89 808.471,3329.77 794.239,3329.77C770.311,3329.77 749.037,3324.39 730.412,3313.64C711.787,3302.89 697.171,3287.9 686.574,3268.67C675.969,3249.44 670.674,3227.71 670.674,3203.48C670.674,3178.94 675.593,3157.07 685.439,3137.83C695.276,3118.6 709.061,3103.61 726.778,3092.86C744.495,3082.11 764.71,3076.73 787.424,3076.73C809.528,3076.73 829.289,3081.96 846.708,3092.41Z" style="fill:rgb(139,106,162);fill-rule:nonzero;"/>
        </g>
        <g transform="matrix(1.60056,0,0,1.60056,-139.795,-4677.14)">
            <path d="M1055.45,3091.27C1055.45,3092.79 1055.29,3093.99 1054.99,3094.9C1054.08,3098.24 1052.65,3100.58 1050.68,3101.94C1048.71,3103.31 1046.06,3103.99 1042.73,3103.99C1040,3103.99 1036.44,3103.69 1032.05,3103.08C1027.66,3102.48 1023.95,3102.17 1020.92,3102.17C1005.77,3102.17 992.303,3105.35 980.492,3111.71C968.68,3118.07 959.439,3126.86 952.78,3138.06C946.115,3149.27 942.786,3161.84 942.786,3175.77L942.786,3313.87C942.786,3317.81 941.572,3321.06 939.151,3323.63C936.724,3326.21 933.396,3327.5 929.158,3327.5C925.219,3327.5 921.96,3326.21 919.39,3323.63C916.814,3321.06 915.529,3317.81 915.529,3313.87L915.529,3092.63C915.529,3088.39 916.814,3085.07 919.39,3082.64C921.96,3080.22 925.219,3079 929.158,3079C933.396,3079 936.724,3080.22 939.151,3082.64C941.572,3085.07 942.786,3088.39 942.786,3092.63L942.786,3120.8C951.567,3106.87 962.774,3095.97 976.403,3088.09C990.031,3080.22 1004.87,3076.28 1020.92,3076.28C1043.93,3076.28 1055.45,3081.28 1055.45,3091.27Z" style="fill:rgb(139,106,162);fill-rule:nonzero;"/>
        </g>
        <g transform="matrix(1.60056,0,0,1.60056,-139.795,-4677.14)">
            <path d="M1102.23,3320.91C1085.57,3314.71 1071.8,3305.23 1060.89,3292.52C1058.77,3290.09 1057.72,3287.37 1057.72,3284.34C1057.72,3280.1 1059.68,3276.62 1063.62,3273.89C1065.44,3272.38 1068.01,3271.62 1071.34,3271.62C1075.58,3271.62 1079.07,3273.29 1081.79,3276.62C1096.93,3295.09 1121.31,3304.33 1154.93,3304.33C1178.85,3304.33 1196.5,3300.09 1207.85,3291.61C1219.21,3283.13 1224.89,3272.23 1224.89,3258.9C1224.89,3234.98 1201.72,3219.68 1155.38,3213.02C1126.01,3208.78 1103.82,3200.75 1088.83,3188.94C1073.84,3177.13 1066.35,3162.9 1066.35,3146.24C1066.35,3124.13 1074.44,3106.94 1090.65,3094.68C1106.85,3082.41 1127.97,3076.28 1154.02,3076.28C1192.18,3076.28 1221.1,3089.91 1240.79,3117.16C1242.61,3119.28 1243.52,3121.86 1243.52,3124.88C1243.52,3129.13 1241.09,3132.61 1236.25,3135.33C1233.22,3136.55 1230.94,3137.15 1229.43,3137.15C1224.89,3137.15 1221.1,3135.18 1218.08,3131.25C1202.63,3111.56 1180.97,3101.72 1153.11,3101.72C1134.64,3101.72 1119.95,3105.73 1109.05,3113.76C1098.14,3121.78 1092.69,3131.7 1092.69,3143.51C1092.69,3155.63 1097.92,3165.32 1108.37,3172.58C1118.82,3179.85 1136.31,3185.31 1160.84,3188.94C1192.93,3193.48 1216.03,3202.04 1230.12,3214.61C1244.2,3227.18 1251.24,3242.39 1251.24,3260.26C1251.24,3274.19 1246.77,3286.46 1237.84,3297.06C1228.9,3307.66 1217.01,3315.84 1202.18,3321.59C1187.33,3327.34 1171.13,3330.22 1153.57,3330.22C1136,3330.22 1118.89,3327.12 1102.23,3320.91Z" style="fill:rgb(139,106,162);fill-rule:nonzero;"/>
        </g>
        <g transform="matrix(1.60056,0,0,1.60056,-139.795,-4677.14)">
            <path d="M1431.59,3291.61C1446.72,3282.83 1458.61,3270.71 1467.25,3255.26C1475.88,3239.82 1480.19,3222.56 1480.19,3203.48C1480.19,3184.4 1475.88,3167.13 1467.25,3151.69C1458.61,3136.24 1446.72,3124.06 1431.59,3115.12C1416.44,3106.19 1399.48,3101.72 1380.71,3101.72C1361.92,3101.72 1344.97,3106.19 1329.83,3115.12C1314.68,3124.06 1302.72,3136.24 1293.94,3151.69C1285.15,3167.13 1280.76,3184.4 1280.76,3203.48C1280.76,3222.56 1285.15,3239.82 1293.94,3255.26C1302.72,3270.71 1314.68,3282.83 1329.83,3291.61C1344.97,3300.39 1361.92,3304.78 1380.71,3304.78C1399.48,3304.78 1416.44,3300.39 1431.59,3291.61ZM1445.21,3092.86C1464.59,3103.92 1479.81,3119.14 1490.87,3138.51C1501.92,3157.9 1507.45,3179.56 1507.45,3203.48L1507.45,3313.87C1507.45,3317.81 1506.24,3321.06 1503.82,3323.63C1501.39,3326.21 1498.06,3327.5 1493.82,3327.5C1489.88,3327.5 1486.62,3326.21 1484.06,3323.63C1481.48,3321.06 1480.19,3317.81 1480.19,3313.87L1480.19,3278.43C1470.2,3294.49 1456.49,3307.13 1439.08,3316.37C1421.66,3325.61 1402.21,3330.22 1380.71,3330.22C1356.78,3330.22 1335.12,3324.7 1315.74,3313.64C1296.36,3302.59 1281.14,3287.37 1270.09,3267.98C1259.03,3248.61 1253.51,3227.1 1253.51,3203.48C1253.51,3179.56 1259.03,3157.9 1270.09,3138.51C1281.14,3119.14 1296.36,3103.92 1315.74,3092.86C1335.12,3081.81 1356.78,3076.28 1380.71,3076.28C1404.33,3076.28 1425.83,3081.81 1445.21,3092.86Z" style="fill:rgb(139,106,162);fill-rule:nonzero;"/>
        </g>
        <g transform="matrix(1.60056,0,0,1.60056,-139.795,-4677.14)">
            <path d="M1553.5,3319.19C1549.11,3314.64 1546.92,3309.19 1546.92,3302.83C1546.92,3296.17 1549.03,3290.72 1553.28,3286.48L1682.3,3135.65C1701.37,3113.85 1710.91,3094.92 1710.91,3078.87C1710.91,3059.19 1705.84,3043.44 1695.69,3031.62C1685.55,3019.81 1671.69,3013.91 1654.13,3013.91C1642.92,3013.91 1632.62,3016.86 1623.24,3022.77C1613.85,3028.67 1606.5,3036.62 1601.21,3046.62C1595.9,3056.61 1593.26,3067.36 1593.26,3078.87C1593.26,3084.93 1591.06,3090.23 1586.67,3094.77C1582.27,3099.31 1576.75,3101.58 1570.09,3101.58C1563.73,3101.58 1558.28,3099.31 1553.73,3094.77C1549.19,3090.23 1546.92,3084.93 1546.92,3078.87C1546.92,3058.58 1551.61,3040.26 1561,3023.9C1570.38,3007.55 1583.19,2994.68 1599.39,2985.29C1615.59,2975.9 1633.84,2971.21 1654.13,2971.21C1674.42,2971.21 1692.21,2975.6 1707.51,2984.38C1722.8,2993.17 1734.61,3005.66 1742.94,3021.86C1751.27,3038.06 1755.43,3057.07 1755.43,3078.87C1755.43,3092.2 1751.57,3106.06 1743.85,3120.44C1736.13,3134.82 1726.51,3148.53 1715,3161.55L1610.97,3279.66L1738.17,3279.66C1744.83,3279.66 1750.44,3281.94 1754.98,3286.48C1759.52,3291.02 1761.8,3296.47 1761.8,3302.83C1761.8,3309.19 1759.52,3314.64 1754.98,3319.19C1750.44,3323.73 1744.83,3326 1738.17,3326L1570.09,3326C1563.42,3326 1557.89,3323.73 1553.5,3319.19Z" style="fill:rgb(253,186,60);fill-rule:nonzero;"/>
        </g>
        <g transform="matrix(1.60056,0,0,1.60056,-139.795,-4677.14)">
            <path d="M1847.65,3319.19C1843.11,3314.64 1840.84,3309.19 1840.84,3302.83L1840.84,3025.72L1807.67,3039.8C1802.52,3041.92 1797.68,3042.98 1793.14,3042.98C1786.47,3042.98 1780.94,3040.87 1776.56,3036.62C1772.16,3032.38 1769.97,3026.93 1769.97,3020.27C1769.97,3015.12 1771.18,3010.66 1773.6,3006.87C1776.02,3003.08 1779.81,3000.28 1784.96,2998.46L1855.83,2973.02C1859.46,2971.82 1862.34,2971.21 1864.46,2971.21C1871.12,2971.21 1876.57,2973.41 1880.81,2977.79C1885.05,2982.19 1887.17,2987.87 1887.17,2994.83L1887.17,3302.83C1887.17,3309.19 1884.9,3314.64 1880.36,3319.19C1875.82,3323.73 1870.21,3326 1863.55,3326C1857.49,3326 1852.19,3323.73 1847.65,3319.19Z" style="fill:rgb(253,186,60);fill-rule:nonzero;"/>
        </g>
        <g transform="matrix(1.60056,0,0,1.60056,-139.795,-4677.14)">
            <path d="M1691.16,3063.39L1702.68,3070.63C1703.68,3071.26 1703.53,3072.77 1702.41,3073.18L1689.67,3077.93C1689.23,3078.09 1688.89,3078.46 1688.78,3078.92L1685.46,3092.11C1685.17,3093.26 1683.69,3093.58 1682.95,3092.65L1674.5,3081.99C1674.21,3081.62 1673.75,3081.42 1673.28,3081.45L1659.71,3082.38C1658.52,3082.45 1657.76,3081.14 1658.42,3080.15L1665.94,3068.82C1666.2,3068.43 1666.25,3067.93 1666.08,3067.5L1661.01,3054.88C1660.57,3053.78 1661.58,3052.64 1662.72,3052.96L1675.83,3056.62C1676.28,3056.74 1676.77,3056.64 1677.13,3056.34L1687.56,3047.62C1688.48,3046.85 1689.87,3047.47 1689.91,3048.65L1690.49,3062.24C1690.51,3062.71 1690.76,3063.14 1691.16,3063.39Z" style="fill:rgb(139,106,162);fill-rule:nonzero;"/>
        </g>
        <g transform="matrix(1.60056,0,0,1.60056,-139.795,-4677.14)">
            <clipPath id="_clip1">
                <path d="M1676.21,3056.67L1676.16,3056.67L1676.21,3056.67ZM1675.97,3056.65C1675.92,3056.64 1675.87,3056.63 1675.83,3056.62C1675.87,3056.63 1675.92,3056.64 1675.97,3056.65ZM1676.49,3056.64C1676.63,3056.61 1676.77,3056.56 1676.91,3056.49C1676.77,3056.56 1676.63,3056.61 1676.49,3056.64ZM1661.44,3055.95L1661.01,3054.88C1660.99,3054.83 1660.98,3054.78 1660.96,3054.74C1660.98,3054.78 1660.99,3054.83 1661.01,3054.88L1661.44,3055.95ZM1660.91,3054.42C1660.86,3053.64 1661.47,3052.96 1662.24,3052.91C1661.47,3052.96 1660.86,3053.64 1660.91,3054.42ZM1662.38,3052.91L1662.33,3052.91L1662.38,3052.91ZM1689.91,3048.58C1689.89,3048.39 1689.84,3048.21 1689.76,3048.06C1689.84,3048.21 1689.89,3048.39 1689.91,3048.58ZM1687.56,3047.62C1687.62,3047.57 1687.68,3047.53 1687.74,3047.49C1687.68,3047.53 1687.62,3047.57 1687.56,3047.62ZM1687.76,3047.48C1687.97,3047.35 1688.19,3047.29 1688.42,3047.28C1688.19,3047.29 1687.97,3047.35 1687.76,3047.48ZM1688.51,3047.28L1688.48,3047.28L1688.51,3047.28Z"/>
            </clipPath>
            <g clip-path="url(#_clip1)">
                <rect x="1660.86" y="3047.28" width="29.05" height="9.39" style="fill:white;"/>
            </g>
        </g>
        <g transform="matrix(1.60056,0,0,1.60056,-139.795,-4677.14)">
            <path d="M1701.97,3073.35L1690.78,3066.33C1690.38,3066.08 1690.13,3065.65 1690.11,3065.18L1689.54,3051.59C1689.5,3050.76 1688.82,3050.21 1688.1,3050.21C1687.79,3050.21 1687.46,3050.32 1687.19,3050.55L1676.75,3059.27C1676.49,3059.49 1676.17,3059.6 1675.84,3059.6C1675.71,3059.6 1675.58,3059.58 1675.45,3059.55L1662.35,3055.9C1662.22,3055.86 1662.09,3055.85 1661.97,3055.85C1661.79,3055.85 1661.61,3055.88 1661.44,3055.95L1661.01,3054.88C1660.99,3054.83 1660.98,3054.78 1660.96,3054.74C1660.93,3054.63 1660.91,3054.52 1660.91,3054.42C1660.86,3053.64 1661.47,3052.96 1662.24,3052.91L1662.38,3052.91C1662.49,3052.91 1662.61,3052.93 1662.72,3052.96L1675.83,3056.62C1675.87,3056.63 1675.92,3056.64 1675.97,3056.65C1676.03,3056.66 1676.1,3056.67 1676.16,3056.67L1676.21,3056.67C1676.3,3056.67 1676.39,3056.66 1676.49,3056.64C1676.63,3056.61 1676.77,3056.56 1676.91,3056.49C1676.98,3056.44 1677.06,3056.39 1677.13,3056.34L1687.56,3047.62C1687.62,3047.57 1687.68,3047.53 1687.74,3047.49C1687.75,3047.48 1687.75,3047.48 1687.76,3047.48C1687.97,3047.35 1688.19,3047.29 1688.42,3047.28L1688.51,3047.28C1689.03,3047.29 1689.52,3047.58 1689.76,3048.06C1689.84,3048.21 1689.89,3048.39 1689.91,3048.58L1689.91,3048.65L1690.49,3062.24C1690.51,3062.71 1690.76,3063.14 1691.16,3063.39L1702.68,3070.63C1703.13,3070.91 1703.35,3071.38 1703.35,3071.84C1703.34,3072.4 1703.02,3072.96 1702.41,3073.18L1701.97,3073.35Z" style="fill:rgb(176,153,191);fill-rule:nonzero;"/>
        </g>
        <g transform="matrix(1.60056,0,0,1.60056,-139.795,-4677.14)">
            <path d="M1658.3,3080.36C1658.31,3080.36 1658.31,3080.35 1658.31,3080.34C1658.31,3080.35 1658.31,3080.36 1658.3,3080.36ZM1658.32,3080.33C1658.32,3080.32 1658.33,3080.31 1658.33,3080.3C1658.33,3080.31 1658.32,3080.32 1658.32,3080.33ZM1658.34,3080.29C1658.35,3080.27 1658.35,3080.26 1658.36,3080.25C1658.35,3080.26 1658.35,3080.27 1658.34,3080.29ZM1658.37,3080.24C1658.37,3080.23 1658.38,3080.22 1658.39,3080.21C1658.38,3080.22 1658.37,3080.23 1658.37,3080.24ZM1658.39,3080.19C1658.4,3080.18 1658.41,3080.17 1658.42,3080.15C1658.41,3080.17 1658.4,3080.18 1658.39,3080.19Z" style="fill:white;fill-rule:nonzero;"/>
        </g>
        <g transform="matrix(1.60056,0,0,1.60056,-139.795,-4677.14)">
            <path d="M1658.73,3082.06C1658.25,3081.68 1658.03,3081.01 1658.28,3080.41C1658.29,3080.39 1658.3,3080.38 1658.3,3080.36C1658.31,3080.36 1658.31,3080.35 1658.31,3080.34L1658.32,3080.33C1658.32,3080.32 1658.33,3080.31 1658.33,3080.3C1658.34,3080.3 1658.34,3080.29 1658.34,3080.29C1658.35,3080.27 1658.35,3080.26 1658.36,3080.25C1658.36,3080.24 1658.36,3080.24 1658.37,3080.24C1658.37,3080.23 1658.38,3080.22 1658.39,3080.21L1658.39,3080.19C1658.4,3080.18 1658.41,3080.17 1658.42,3080.15L1665.39,3069.65L1665.7,3070.43C1665.88,3070.87 1665.83,3071.36 1665.57,3071.76L1658.73,3082.06Z" style="fill:rgb(176,153,191);fill-rule:nonzero;"/>
        </g>
        <g transform="matrix(1.60056,0,0,1.60056,-139.795,-4677.14)">
            <path d="M1643.64,3040.08L1657.25,3042.03C1658.43,3042.2 1658.9,3043.64 1658.05,3044.47L1648.22,3054.09C1647.88,3054.42 1647.73,3054.9 1647.81,3055.36L1650.16,3068.91C1650.36,3070.08 1649.13,3070.97 1648.08,3070.42L1635.9,3064.04C1635.48,3063.82 1634.98,3063.83 1634.57,3064.05L1622.41,3070.47C1621.36,3071.02 1620.13,3070.13 1620.33,3068.96L1622.63,3055.4C1622.7,3054.94 1622.55,3054.46 1622.21,3054.14L1612.35,3044.55C1611.5,3043.73 1611.96,3042.28 1613.14,3042.11L1626.74,3040.11C1627.21,3040.04 1627.61,3039.75 1627.82,3039.32L1633.88,3026.98C1634.41,3025.92 1635.92,3025.91 1636.45,3026.98L1642.56,3039.3C1642.77,3039.72 1643.17,3040.01 1643.64,3040.08Z" style="fill:rgb(139,106,162);fill-rule:nonzero;"/>
        </g>
        <g transform="matrix(1.60056,0,0,1.60056,-139.795,-4677.14)">
            <path d="M1614.05,3046.2L1612.35,3044.55C1612.06,3044.27 1611.92,3043.91 1611.91,3043.56C1611.9,3042.88 1612.37,3042.22 1613.14,3042.11L1626.74,3040.11C1627.21,3040.04 1627.61,3039.75 1627.82,3039.32L1633.88,3026.98C1633.91,3026.94 1633.93,3026.9 1633.95,3026.85C1634.21,3026.44 1634.63,3026.21 1635.07,3026.18L1635.22,3026.18C1635.66,3026.2 1636.09,3026.41 1636.36,3026.81C1636.39,3026.86 1636.42,3026.92 1636.45,3026.98L1637.25,3028.59C1636.75,3028.6 1636.25,3028.86 1635.99,3029.39L1629.93,3041.73C1629.72,3042.15 1629.32,3042.45 1628.85,3042.52L1615.25,3044.52C1614.38,3044.64 1613.91,3045.46 1614.05,3046.2Z" style="fill:rgb(176,153,191);fill-rule:nonzero;"/>
        </g>
        <g transform="matrix(1.60056,0,0,1.60056,-139.795,-4677.14)">
            <path d="M1657.59,3042.12L1657.58,3042.12L1657.59,3042.12ZM1657.55,3042.11C1657.54,3042.11 1657.54,3042.1 1657.53,3042.1C1657.54,3042.1 1657.54,3042.11 1657.55,3042.11ZM1657.5,3042.09C1657.49,3042.09 1657.49,3042.09 1657.48,3042.08C1657.49,3042.09 1657.49,3042.09 1657.5,3042.09ZM1657.45,3042.08C1657.45,3042.07 1657.44,3042.07 1657.43,3042.07C1657.44,3042.07 1657.45,3042.07 1657.45,3042.08ZM1657.4,3042.06L1657.38,3042.06L1657.4,3042.06ZM1657.35,3042.05L1657.32,3042.05L1657.35,3042.05ZM1657.3,3042.04C1657.29,3042.04 1657.27,3042.04 1657.25,3042.03C1657.27,3042.04 1657.29,3042.04 1657.3,3042.04ZM1657.25,3042.03L1643.88,3040.11L1657.25,3042.03Z" style="fill:white;fill-rule:nonzero;"/>
        </g>
        <g transform="matrix(1.60056,0,0,1.60056,-139.795,-4677.14)">
            <path d="M1658.2,3044.27L1645.75,3042.49C1645.28,3042.42 1644.88,3042.13 1644.67,3041.71L1643.88,3040.11L1657.25,3042.03C1657.27,3042.04 1657.29,3042.04 1657.3,3042.04C1657.31,3042.04 1657.31,3042.04 1657.32,3042.05L1657.35,3042.05C1657.36,3042.05 1657.37,3042.06 1657.38,3042.06L1657.4,3042.06C1657.41,3042.07 1657.42,3042.07 1657.43,3042.07C1657.44,3042.07 1657.45,3042.07 1657.45,3042.08L1657.48,3042.08C1657.49,3042.09 1657.49,3042.09 1657.5,3042.09C1657.51,3042.09 1657.52,3042.1 1657.53,3042.1C1657.54,3042.1 1657.54,3042.11 1657.55,3042.11C1657.56,3042.11 1657.57,3042.12 1657.58,3042.12L1657.59,3042.12C1657.6,3042.13 1657.61,3042.13 1657.63,3042.14C1658.44,3042.5 1658.73,3043.54 1658.2,3044.27Z" style="fill:rgb(176,153,191);fill-rule:nonzero;"/>
        </g>
        <g transform="matrix(1.60056,0,0,1.60056,-139.795,-4677.14)">
            <path d="M1621.74,3070.63C1621.67,3070.63 1621.61,3070.63 1621.54,3070.62C1621.61,3070.63 1621.67,3070.63 1621.74,3070.63ZM1621.86,3070.63C1622.04,3070.61 1622.23,3070.56 1622.41,3070.47C1622.23,3070.56 1622.04,3070.61 1621.86,3070.63ZM1620.3,3069.21C1620.3,3069.16 1620.31,3069.1 1620.31,3069.04C1620.31,3069.1 1620.3,3069.16 1620.3,3069.21ZM1622.63,3055.4C1622.66,3055.22 1622.62,3055.04 1622.59,3054.86L1622.62,3054.89C1622.65,3055.06 1622.66,3055.23 1622.63,3055.4Z" style="fill:white;fill-rule:nonzero;"/>
        </g>
        <g transform="matrix(1.60056,0,0,1.60056,-139.795,-4677.14)">
            <path d="M1621.74,3070.63C1621.67,3070.63 1621.61,3070.63 1621.54,3070.62C1620.87,3070.53 1620.31,3069.95 1620.3,3069.21C1620.3,3069.16 1620.31,3069.1 1620.31,3069.04C1620.32,3069.02 1620.32,3068.99 1620.33,3068.96L1622.63,3055.4C1622.66,3055.23 1622.65,3055.06 1622.62,3054.89L1624.32,3056.54C1624.66,3056.87 1624.81,3057.35 1624.73,3057.81L1622.6,3070.36L1622.41,3070.47C1622.23,3070.56 1622.04,3070.61 1621.86,3070.63L1621.74,3070.63Z" style="fill:rgb(176,153,191);fill-rule:nonzero;"/>
        </g>
        <g transform="matrix(1.60056,0,0,1.60056,-139.795,-4677.14)">
            <path d="M1649.92,3085.39L1662.45,3085.69C1663.64,3085.72 1664.28,3087.09 1663.54,3088.02L1655.68,3097.79C1655.38,3098.16 1655.28,3098.65 1655.42,3099.1L1659.01,3111.11C1659.35,3112.25 1658.24,3113.28 1657.13,3112.86L1645.41,3108.4C1644.97,3108.24 1644.47,3108.3 1644.09,3108.57L1633.77,3115.7C1632.79,3116.37 1631.47,3115.63 1631.52,3114.45L1632.14,3101.92C1632.16,3101.45 1631.95,3101 1631.58,3100.71L1621.61,3093.1C1620.67,3092.38 1620.96,3090.89 1622.1,3090.58L1634.21,3087.3C1634.66,3087.18 1635.03,3086.84 1635.18,3086.39L1639.34,3074.56C1639.73,3073.44 1641.24,3073.26 1641.89,3074.25L1648.75,3084.75C1649.01,3085.14 1649.45,3085.38 1649.92,3085.39Z" style="fill:rgb(139,106,162);fill-rule:nonzero;"/>
        </g>
        <g transform="matrix(1.60056,0,0,1.60056,-139.795,-4677.14)">
            <path d="M1662.45,3085.69L1650.34,3085.4L1662.45,3085.69Z" style="fill:white;fill-rule:nonzero;"/>
        </g>
        <g transform="matrix(1.60056,0,0,1.60056,-139.795,-4677.14)">
            <path d="M1663.6,3087.91L1652.55,3087.65C1652.08,3087.64 1651.64,3087.39 1651.38,3087L1650.34,3085.4L1662.45,3085.69C1663.6,3085.72 1664.22,3086.99 1663.6,3087.91Z" style="fill:rgb(176,153,191);fill-rule:nonzero;"/>
        </g>
        <g transform="matrix(1.60056,0,0,1.60056,-139.795,-4677.14)">
            <path d="M1632.96,3115.95L1632.82,3115.95L1632.96,3115.95ZM1633.06,3115.95C1633.23,3115.94 1633.4,3115.89 1633.57,3115.81C1633.4,3115.89 1633.23,3115.94 1633.06,3115.95ZM1633.57,3115.81C1633.64,3115.78 1633.7,3115.74 1633.77,3115.7C1633.7,3115.74 1633.64,3115.78 1633.57,3115.81ZM1631.52,3114.53L1631.52,3114.45L1631.52,3114.53ZM1632.14,3101.92C1632.15,3101.7 1632.1,3101.49 1632.02,3101.3L1632.03,3101.31C1632.11,3101.5 1632.15,3101.71 1632.14,3101.92Z" style="fill:white;fill-rule:nonzero;"/>
        </g>
        <g transform="matrix(1.60056,0,0,1.60056,-139.795,-4677.14)">
            <path d="M1633.06,3115.95L1632.82,3115.95C1632.13,3115.88 1631.53,3115.31 1631.52,3114.53L1631.52,3114.45L1632.14,3101.92C1632.15,3101.71 1632.11,3101.5 1632.03,3101.31L1634.21,3102.97C1634.58,3103.25 1634.79,3103.71 1634.77,3104.18L1634.22,3115.38L1633.77,3115.7C1633.7,3115.74 1633.64,3115.78 1633.57,3115.81C1633.4,3115.89 1633.23,3115.94 1633.06,3115.95Z" style="fill:rgb(176,153,191);fill-rule:nonzero;"/>
        </g>
        <g transform="matrix(1.60056,0,0,1.60056,-139.795,-4677.14)">
            <path d="M1623.79,3094.77L1621.61,3093.1C1621.23,3092.81 1621.05,3092.39 1621.04,3091.98C1621.05,3092.39 1621.23,3092.81 1621.61,3093.1L1623.79,3094.77ZM1642.97,3075.91L1641.89,3074.25L1642.98,3075.91L1642.97,3075.91ZM1641.89,3074.25C1641.6,3073.81 1641.14,3073.6 1640.69,3073.6C1641.15,3073.6 1641.6,3073.81 1641.89,3074.25Z" style="fill:white;fill-rule:nonzero;"/>
        </g>
        <g transform="matrix(1.60056,0,0,1.60056,-139.795,-4677.14)">
            <path d="M1623.79,3094.77L1621.61,3093.1C1621.23,3092.81 1621.05,3092.39 1621.04,3091.98C1621.04,3091.37 1621.42,3090.77 1622.1,3090.58L1634.21,3087.3C1634.66,3087.18 1635.03,3086.84 1635.18,3086.39L1639.34,3074.56C1639.56,3073.93 1640.12,3073.6 1640.69,3073.6C1641.14,3073.6 1641.6,3073.81 1641.89,3074.25L1642.97,3075.91C1642.54,3076.02 1642.14,3076.32 1641.97,3076.81L1637.81,3088.65C1637.66,3089.09 1637.29,3089.43 1636.84,3089.55L1624.73,3092.84C1623.85,3093.08 1623.48,3094.02 1623.79,3094.77Z" style="fill:rgb(176,153,191);fill-rule:nonzero;"/>
        </g>
    </g>
</svg>
